<svg xmlns="http://www.w3.org/2000/svg" xmlns:xlink="http://www.w3.org/1999/xlink" style="isolation:isolate" viewBox="0 0 1920 1080" id="el_d_sNDF4n2"><style>@-webkit-keyframes kf_el_KsN4_MBvpFN_an_YhXp4XSsy{0%{-webkit-transform: translate(1280.4739990234375px, 663.6567993164062px) translate(-1280.4739990234375px, -663.6567993164062px) translate(635px, 0px);transform: translate(1280.4739990234375px, 663.6567993164062px) translate(-1280.4739990234375px, -663.6567993164062px) translate(635px, 0px);}100%{-webkit-transform: translate(1280.4739990234375px, 663.6567993164062px) translate(-1280.4739990234375px, -663.6567993164062px) translate(-1800px, 0px);transform: translate(1280.4739990234375px, 663.6567993164062px) translate(-1280.4739990234375px, -663.6567993164062px) translate(-1800px, 0px);}}@keyframes kf_el_KsN4_MBvpFN_an_YhXp4XSsy{0%{-webkit-transform: translate(1280.4739990234375px, 663.6567993164062px) translate(-1280.4739990234375px, -663.6567993164062px) translate(635px, 0px);transform: translate(1280.4739990234375px, 663.6567993164062px) translate(-1280.4739990234375px, -663.6567993164062px) translate(635px, 0px);}100%{-webkit-transform: translate(1280.4739990234375px, 663.6567993164062px) translate(-1280.4739990234375px, -663.6567993164062px) translate(-1800px, 0px);transform: translate(1280.4739990234375px, 663.6567993164062px) translate(-1280.4739990234375px, -663.6567993164062px) translate(-1800px, 0px);}}@-webkit-keyframes kf_el_YQY8rcaqLPv_an_2DfQq7uQx{0%{-webkit-transform: translate(1249.8199462890625px, 76.5px) scale(1, 1) translate(-1249.8199462890625px, -76.5px);transform: translate(1249.8199462890625px, 76.5px) scale(1, 1) translate(-1249.8199462890625px, -76.5px);}21.85%{-webkit-transform: translate(1249.8199462890625px, 76.5px) scale(1.2, 1.2) translate(-1249.8199462890625px, -76.5px);transform: translate(1249.8199462890625px, 76.5px) scale(1.2, 1.2) translate(-1249.8199462890625px, -76.5px);}46.30%{-webkit-transform: translate(1249.8199462890625px, 76.5px) scale(1, 1) translate(-1249.8199462890625px, -76.5px);transform: translate(1249.8199462890625px, 76.5px) scale(1, 1) translate(-1249.8199462890625px, -76.5px);}71.85%{-webkit-transform: translate(1249.8199462890625px, 76.5px) scale(1.2, 1.2) translate(-1249.8199462890625px, -76.5px);transform: translate(1249.8199462890625px, 76.5px) scale(1.2, 1.2) translate(-1249.8199462890625px, -76.5px);}100%{-webkit-transform: translate(1249.8199462890625px, 76.5px) scale(1, 1) translate(-1249.8199462890625px, -76.5px);transform: translate(1249.8199462890625px, 76.5px) scale(1, 1) translate(-1249.8199462890625px, -76.5px);}}@keyframes kf_el_YQY8rcaqLPv_an_2DfQq7uQx{0%{-webkit-transform: translate(1249.8199462890625px, 76.5px) scale(1, 1) translate(-1249.8199462890625px, -76.5px);transform: translate(1249.8199462890625px, 76.5px) scale(1, 1) translate(-1249.8199462890625px, -76.5px);}21.85%{-webkit-transform: translate(1249.8199462890625px, 76.5px) scale(1.2, 1.2) translate(-1249.8199462890625px, -76.5px);transform: translate(1249.8199462890625px, 76.5px) scale(1.2, 1.2) translate(-1249.8199462890625px, -76.5px);}46.30%{-webkit-transform: translate(1249.8199462890625px, 76.5px) scale(1, 1) translate(-1249.8199462890625px, -76.5px);transform: translate(1249.8199462890625px, 76.5px) scale(1, 1) translate(-1249.8199462890625px, -76.5px);}71.85%{-webkit-transform: translate(1249.8199462890625px, 76.5px) scale(1.2, 1.2) translate(-1249.8199462890625px, -76.5px);transform: translate(1249.8199462890625px, 76.5px) scale(1.2, 1.2) translate(-1249.8199462890625px, -76.5px);}100%{-webkit-transform: translate(1249.8199462890625px, 76.5px) scale(1, 1) translate(-1249.8199462890625px, -76.5px);transform: translate(1249.8199462890625px, 76.5px) scale(1, 1) translate(-1249.8199462890625px, -76.5px);}}@-webkit-keyframes kf_el__VBZkm5VxZv_an_EVIEpy6em{0%{-webkit-transform: translate(506.97601318359375px, 132px) scale(1, 1) translate(-506.97601318359375px, -132px);transform: translate(506.97601318359375px, 132px) scale(1, 1) translate(-506.97601318359375px, -132px);}21.48%{-webkit-transform: translate(506.97601318359375px, 132px) scale(0.8, 0.8) translate(-506.97601318359375px, -132px);transform: translate(506.97601318359375px, 132px) scale(0.8, 0.8) translate(-506.97601318359375px, -132px);}47.78%{-webkit-transform: translate(506.97601318359375px, 132px) scale(1, 1) translate(-506.97601318359375px, -132px);transform: translate(506.97601318359375px, 132px) scale(1, 1) translate(-506.97601318359375px, -132px);}73.70%{-webkit-transform: translate(506.97601318359375px, 132px) scale(0.8, 0.8) translate(-506.97601318359375px, -132px);transform: translate(506.97601318359375px, 132px) scale(0.8, 0.8) translate(-506.97601318359375px, -132px);}100%{-webkit-transform: translate(506.97601318359375px, 132px) scale(1, 1) translate(-506.97601318359375px, -132px);transform: translate(506.97601318359375px, 132px) scale(1, 1) translate(-506.97601318359375px, -132px);}}@keyframes kf_el__VBZkm5VxZv_an_EVIEpy6em{0%{-webkit-transform: translate(506.97601318359375px, 132px) scale(1, 1) translate(-506.97601318359375px, -132px);transform: translate(506.97601318359375px, 132px) scale(1, 1) translate(-506.97601318359375px, -132px);}21.48%{-webkit-transform: translate(506.97601318359375px, 132px) scale(0.8, 0.8) translate(-506.97601318359375px, -132px);transform: translate(506.97601318359375px, 132px) scale(0.8, 0.8) translate(-506.97601318359375px, -132px);}47.78%{-webkit-transform: translate(506.97601318359375px, 132px) scale(1, 1) translate(-506.97601318359375px, -132px);transform: translate(506.97601318359375px, 132px) scale(1, 1) translate(-506.97601318359375px, -132px);}73.70%{-webkit-transform: translate(506.97601318359375px, 132px) scale(0.8, 0.8) translate(-506.97601318359375px, -132px);transform: translate(506.97601318359375px, 132px) scale(0.8, 0.8) translate(-506.97601318359375px, -132px);}100%{-webkit-transform: translate(506.97601318359375px, 132px) scale(1, 1) translate(-506.97601318359375px, -132px);transform: translate(506.97601318359375px, 132px) scale(1, 1) translate(-506.97601318359375px, -132px);}}@-webkit-keyframes kf_el_-9WNwiIF4A_an_UVkkc3XdJ{0%{-webkit-transform: translate(1615.8599853515625px, 260px) scale(1, 1) translate(-1615.8599853515625px, -260px);transform: translate(1615.8599853515625px, 260px) scale(1, 1) translate(-1615.8599853515625px, -260px);}48.89%{-webkit-transform: translate(1615.8599853515625px, 260px) scale(1.6, 1.6) translate(-1615.8599853515625px, -260px);transform: translate(1615.8599853515625px, 260px) scale(1.6, 1.6) translate(-1615.8599853515625px, -260px);}100%{-webkit-transform: translate(1615.8599853515625px, 260px) scale(1, 1) translate(-1615.8599853515625px, -260px);transform: translate(1615.8599853515625px, 260px) scale(1, 1) translate(-1615.8599853515625px, -260px);}}@keyframes kf_el_-9WNwiIF4A_an_UVkkc3XdJ{0%{-webkit-transform: translate(1615.8599853515625px, 260px) scale(1, 1) translate(-1615.8599853515625px, -260px);transform: translate(1615.8599853515625px, 260px) scale(1, 1) translate(-1615.8599853515625px, -260px);}48.89%{-webkit-transform: translate(1615.8599853515625px, 260px) scale(1.6, 1.6) translate(-1615.8599853515625px, -260px);transform: translate(1615.8599853515625px, 260px) scale(1.6, 1.6) translate(-1615.8599853515625px, -260px);}100%{-webkit-transform: translate(1615.8599853515625px, 260px) scale(1, 1) translate(-1615.8599853515625px, -260px);transform: translate(1615.8599853515625px, 260px) scale(1, 1) translate(-1615.8599853515625px, -260px);}}@-webkit-keyframes kf_el_Vhmb9IvcRx_an_LGdWOuPWE{0%{-webkit-transform: translate(16px, 243px) scale(1, 1) translate(-16px, -243px);transform: translate(16px, 243px) scale(1, 1) translate(-16px, -243px);}29.63%{-webkit-transform: translate(16px, 243px) scale(1.75, 1.75) translate(-16px, -243px);transform: translate(16px, 243px) scale(1.75, 1.75) translate(-16px, -243px);}53.33%{-webkit-transform: translate(16px, 243px) scale(1, 1) translate(-16px, -243px);transform: translate(16px, 243px) scale(1, 1) translate(-16px, -243px);}77.41%{-webkit-transform: translate(16px, 243px) scale(1.5, 1.5) translate(-16px, -243px);transform: translate(16px, 243px) scale(1.5, 1.5) translate(-16px, -243px);}100%{-webkit-transform: translate(16px, 243px) scale(1, 1) translate(-16px, -243px);transform: translate(16px, 243px) scale(1, 1) translate(-16px, -243px);}}@keyframes kf_el_Vhmb9IvcRx_an_LGdWOuPWE{0%{-webkit-transform: translate(16px, 243px) scale(1, 1) translate(-16px, -243px);transform: translate(16px, 243px) scale(1, 1) translate(-16px, -243px);}29.63%{-webkit-transform: translate(16px, 243px) scale(1.75, 1.75) translate(-16px, -243px);transform: translate(16px, 243px) scale(1.75, 1.75) translate(-16px, -243px);}53.33%{-webkit-transform: translate(16px, 243px) scale(1, 1) translate(-16px, -243px);transform: translate(16px, 243px) scale(1, 1) translate(-16px, -243px);}77.41%{-webkit-transform: translate(16px, 243px) scale(1.5, 1.5) translate(-16px, -243px);transform: translate(16px, 243px) scale(1.5, 1.5) translate(-16px, -243px);}100%{-webkit-transform: translate(16px, 243px) scale(1, 1) translate(-16px, -243px);transform: translate(16px, 243px) scale(1, 1) translate(-16px, -243px);}}#el_d_sNDF4n2 *{-webkit-animation-duration: 9s;animation-duration: 9s;-webkit-animation-iteration-count: infinite;animation-iteration-count: infinite;-webkit-animation-timing-function: cubic-bezier(0, 0, 1, 1);animation-timing-function: cubic-bezier(0, 0, 1, 1);}#el_WXUXe6_HNC{-webkit-transform: matrix(1,0,0,1,0,0);transform: matrix(1,0,0,1,0,0);fill: rgb(154,219,249);}#el_OfBLT4nusw{fill: rgb(255,246,141);}#el_lS2sZuYEoW{stroke: none;fill: #FFFFFF;stroke-miterlimit: 10;}#el_On48q4t6RN{stroke: none;fill: #FFFFFF;stroke-miterlimit: 10;}#el_LY5gP9L-Fa{stroke: none;fill: #FFFFFF;stroke-miterlimit: 10;}#el_OcjTseZNhL{stroke: none;fill: #FFFFFF;stroke-miterlimit: 10;}#el_RCcCTRNT1x{stroke: none;fill: #FFFFFF;stroke-miterlimit: 10;}#el_BUNsVnNU6c{stroke: none;fill: #FFFFFF;stroke-miterlimit: 10;}#el_MfMRkRZwIK{stroke: none;fill: #FFFFFF;stroke-miterlimit: 10;}#el_mcc3t9NYUH{stroke: none;fill: #FFFFFF;stroke-miterlimit: 10;}#el_iq0sr0cWs9_{fill: rgb(1,183,196);}#el_cVutL09VtAu{stroke: none;fill: #F9F9F9;stroke-miterlimit: 10;}#el_ZP3Pe0oApBL{stroke: none;fill: #F9F9F9;stroke-miterlimit: 10;}#el_gbLt69Ul6eb{stroke: none;fill: #F9F9F9;stroke-miterlimit: 10;}#el_Zm1HPZOj0bm{fill: rgb(1,183,196);}#el_DRz39heqqWM{stroke: none;fill: #F9F9F9;stroke-miterlimit: 10;}#el_2EQ5CjgJXgB{stroke: none;fill: #F9F9F9;stroke-miterlimit: 10;}#el_kiUZSHdomJ0{stroke: none;fill: #F9F9F9;stroke-miterlimit: 10;}#el_e9sKML0z-dQ{fill: rgb(1,183,196);}#el_Tp-S1jbJAwU{stroke: none;fill: #F9F9F9;stroke-miterlimit: 10;}#el_qHa9I2yPuXP{stroke: none;fill: #F9F9F9;stroke-miterlimit: 10;}#el_eWtm-7Hy1Vw{stroke: none;fill: #F9F9F9;stroke-miterlimit: 10;}#el_kB7JYSSUJNA{stroke: none;fill: #F9F9F9;stroke-miterlimit: 10;}#el_QPW7-5-C00n{stroke: none;fill: #F9F9F9;stroke-miterlimit: 10;}#el_KQyYW3-uXTk{fill: rgb(1,183,196);}#el_2TKWU3EDR8-{stroke: none;fill: #F9F9F9;stroke-miterlimit: 10;}#el_1txp64SiLbr{stroke: none;fill: #F9F9F9;stroke-miterlimit: 10;}#el_G84nq9BPuqQ{stroke: none;fill: #F9F9F9;stroke-miterlimit: 10;}#el_OsvFOeB3U65{stroke: none;fill: #F9F9F9;stroke-miterlimit: 10;}#el_PK1ubGltt0d{stroke: none;fill: #F9F9F9;stroke-miterlimit: 10;}#el_t0FInQq3WzW{fill: rgb(1,183,196);}#el_hfX8eVc-KQb{stroke: none;fill: #F9F9F9;stroke-miterlimit: 10;}#el_QrdgWSfYVm9{stroke: none;fill: #F9F9F9;stroke-miterlimit: 10;}#el_cHnyhI9IGBO{stroke: none;fill: #F9F9F9;stroke-miterlimit: 10;}#el_ORZuXSfFVh1{stroke: none;fill: #F9F9F9;stroke-miterlimit: 10;}#el_GMhzdeOWsoX{stroke: none;fill: #F9F9F9;stroke-miterlimit: 10;}#el_dAPct_mqSWN{fill: rgb(136,198,65);}#el_LgIefO28LQI{fill: rgb(136,198,65);}#el_3lHAfOD849R{fill: rgb(136,198,65);}#el_y4_dHJCVuiE{fill: rgb(32,138,71);}#el_b3gtbO7NHwO{fill: rgb(32,138,71);}#el_pvuyuT5OmMy{fill: rgb(32,138,71);}#el_WiV_-4IWUTN{fill: rgb(136,198,65);}#el_h38Wstj2-te{fill: rgb(136,198,65);}#el_G9BekEuHye8{fill: rgb(136,198,65);}#el_KjjmDnGvzjw{fill: rgb(32,138,71);}#el_TjzH96uMkn9{fill: rgb(32,138,71);}#el_WNtTjlYTpUR{fill: rgb(32,138,71);}#el_4_Q9rV1NBO-{fill: rgb(136,198,65);}#el_hkzP0d5PPVf{fill: rgb(136,198,65);}#el_qGyxzV_RWeZ{fill: rgb(136,198,65);}#el_gYcgy8RT_a5{fill: rgb(32,138,71);}#el_pSl3SEmQLim{fill: rgb(32,138,71);}#el_UkM3Qg1e-s9{fill: rgb(32,138,71);}#el_ssx4aBCcrvL{fill: rgb(136,198,65);}#el_vyxnWNZA8hM{fill: rgb(136,198,65);}#el_VyhnTAqZy3k{fill: rgb(136,198,65);}#el_YntpnHMVbE_{fill: rgb(32,138,71);}#el_Qgoez1jdfQC{fill: rgb(32,138,71);}#el_G8g3Lak0Nv4{fill: rgb(32,138,71);}#el_7zN8DCqPkDR{fill: rgb(136,198,65);}#el_IdyyIZ7TFuo{fill: rgb(136,198,65);}#el_eKYz0kiLnyC{fill: rgb(136,198,65);}#el_BzVA0gIoxNg{fill: rgb(32,138,71);}#el_S0Cvcy3yEYY{fill: rgb(32,138,71);}#el_5U700yxwjMH{fill: rgb(32,138,71);}#el_dCDLZLeTAFr{fill: rgb(136,198,65);}#el_FfE_Zvbl1nW{fill: rgb(136,198,65);}#el_jIWv_6BweGf{fill: rgb(136,198,65);}#el_PmFdlZ9r7_f{fill: rgb(32,138,71);}#el_G4FQOaWSTtl{fill: rgb(32,138,71);}#el_sbUc90Rbr_r{fill: rgb(32,138,71);}#el_HKmDx6mozl1{fill: rgb(136,198,65);}#el_yBCfAOoKZ48{fill: rgb(136,198,65);}#el_Qtd-feorwjj{fill: rgb(136,198,65);}#el_vzXI8_qSsKh{fill: rgb(32,138,71);}#el_6aMk66c91t6{fill: rgb(32,138,71);}#el_cwv7EqqZfKy{fill: rgb(32,138,71);}#el_fEXUyMoBWg_{fill: rgb(22,96,49);}#el_MHNO6lkIt2u{fill: rgb(22,96,49);}#el_ZIVAIAxoxa5{fill: rgb(22,96,49);}#el_G58vCwF37I-{fill: rgb(44,189,96);}#el_1FmLQsD2ho0{fill: rgb(44,189,96);}#el_UaPis3-hasY{fill: rgb(44,189,96);}#el_WiLDLaPPULb{fill: rgb(136,198,65);}#el_Q-NPJ_Ocq7w{fill: rgb(35,72,80);}#el_3amRLsV0Pq1{fill: rgb(35,72,80);}#el_qyUnWxOW7MQ{fill: rgb(35,72,80);}#el_zGy2aD5jrbN{fill: rgb(136,198,65);}#el_CP8S9C4MXj2{fill: rgb(136,198,65);}#el_aXgTKbh8YKU{fill: rgb(136,198,65);}#el_CVM52PZGXwC{fill: rgb(32,138,71);}#el_RPbcOdbQZpA{fill: rgb(32,138,71);}#el_Z7SmUYUtzWt{fill: rgb(32,138,71);}#el_0QWyXjdz5kd{fill: rgb(136,198,65);}#el_Wpqt-ZGHgYA{fill: rgb(35,72,80);}#el_e6XBMOUdGBd{fill: rgb(35,72,80);}#el_sKZDUWX9Po6{fill: rgb(35,72,80);}#el_pU5IgOWCofc{fill: rgb(136,198,65);}#el_OdM0x6JzPpv{fill: rgb(136,198,65);}#el_UGRe5Czucfv{fill: rgb(136,198,65);}#el_Zh6vhq8EZQI{fill: rgb(32,138,71);}#el_57yZcSftHdz{fill: rgb(32,138,71);}#el_F-vD1jqjgym{fill: rgb(32,138,71);}#el_EvZiIadDWtZ{fill: rgb(136,198,65);}#el_wMgXG_hiA6f{fill: rgb(35,72,80);}#el_w4zaKGMrfKE{fill: rgb(35,72,80);}#el_fIzG2t8XJE7{fill: rgb(35,72,80);}#el_3tOkdJCJha2{fill: rgb(136,198,65);}#el_HANSmH-7RgX{fill: rgb(136,198,65);}#el_v0zyxK9ubz0{fill: rgb(136,198,65);}#el_Y2HV5r-q_xs{fill: rgb(32,138,71);}#el_ENyjGbC8LFg{fill: rgb(32,138,71);}#el_p3HCpP6imcM{fill: rgb(32,138,71);}#el_neZIHdNhRn0{fill: rgb(136,198,65);}#el_faaphhaF-6C{fill: rgb(35,72,80);}#el_HnDNHXL6bNp{fill: rgb(35,72,80);}#el_JewkAuUR_1M{fill: rgb(35,72,80);}#el_pVLV-prh36Z{fill: rgb(136,198,65);}#el_6Mo0dYN4CKS{fill: rgb(35,72,80);}#el_SG4DcmOH_Sv{fill: rgb(35,72,80);}#el_FPKkkzizCpP{fill: rgb(35,72,80);}#el_988TmZLGmv_{fill: rgb(136,198,65);}#el_J0PcAFKWJKU{fill: rgb(136,198,65);}#el_SprIYIM6Vuz{fill: rgb(136,198,65);}#el_FuDx9IlJxtM{fill: rgb(32,138,71);}#el_FuR6hzS9ZfR{fill: rgb(32,138,71);}#el_j2T8aLLjku1{fill: rgb(32,138,71);}#el_wfDytl5PU_a{fill: rgb(136,198,65);}#el_S38aJgGmuP9{fill: rgb(136,198,65);}#el_Gu-_QPAtXCF{fill: rgb(136,198,65);}#el_ZBHHC8h3o_J{fill: rgb(32,138,71);}#el_1om8BVvzhT7{fill: rgb(32,138,71);}#el_dzFI6Vm31-Q{fill: rgb(32,138,71);}#el_W7__WsXw11N{fill: rgb(136,198,65);}#el_4cBTJwrbOZk{fill: rgb(35,72,80);}#el_lVXEU-2TJmL{fill: rgb(35,72,80);}#el_QxvzVNXUgNq{fill: rgb(35,72,80);}#el_Fw0D0YtsWrK{fill: rgb(136,198,65);}#el_2_ahlsdEiaR{fill: rgb(136,198,65);}#el_bE-1CLsPP-R{fill: rgb(136,198,65);}#el_ka72vglIjLn{fill: rgb(32,138,71);}#el_rJz12SpJ9Jy{fill: rgb(32,138,71);}#el_s9ZiC8bYYMw{fill: rgb(32,138,71);}#el_lhxEX3bxLqW{fill: rgb(136,198,65);}#el_OK6s67Uw2NA{fill: rgb(136,198,65);}#el_fmW2mIjHqKh{fill: rgb(136,198,65);}#el_fTK290bAhzM{fill: rgb(32,138,71);}#el_2MyMKboVFy8{fill: rgb(32,138,71);}#el_I7lArkQX2VH{fill: rgb(32,138,71);}#el_N_4PUib6q_q{-webkit-transform: matrix(1,0,0,1,0,0);transform: matrix(1,0,0,1,0,0);fill: rgb(47,48,69);}#el_TYzQqu25m81{-webkit-transform: matrix(1,0,0,1,0,0);transform: matrix(1,0,0,1,0,0);fill: rgb(235,235,235);}#el_y2k1GwKyawB{-webkit-transform: matrix(1,0,0,1,0,0);transform: matrix(1,0,0,1,0,0);fill: rgb(235,235,235);}#el_0f4N-odZXLP{-webkit-transform: matrix(1,0,0,1,0,0);transform: matrix(1,0,0,1,0,0);fill: rgb(235,235,235);}#el_fonRdXIPywZ{-webkit-transform: matrix(1,0,0,1,0,0);transform: matrix(1,0,0,1,0,0);fill: rgb(235,235,235);}#el_RVaCLr21Mw8{-webkit-transform: matrix(1,0,0,1,0,0);transform: matrix(1,0,0,1,0,0);fill: rgb(235,235,235);}#el_vgefh2TnGVw{-webkit-transform: matrix(1,0,0,1,0,0);transform: matrix(1,0,0,1,0,0);fill: rgb(72,73,81);}#el_cci_ZvJIb81{stroke: none;fill: #FFFFFF;stroke-miterlimit: 10;}#el_Qlj1VgDzoC0{stroke: none;fill: #FFFFFF;stroke-miterlimit: 10;}#el_hyppklkmTYn{stroke: none;fill: #FFFFFF;stroke-miterlimit: 10;}#el_1eb5n2P4CMq{stroke: none;fill: #FFFFFF;stroke-miterlimit: 10;}#el_XB0UujgZlsC{stroke: none;fill: #FFFFFF;stroke-miterlimit: 10;}#el_mepm00CrqAQ{stroke: none;fill: #FFFFFF;stroke-miterlimit: 10;}#el_LKqE9HGSvrw{stroke: none;fill: #104546;stroke-miterlimit: 10;}#el_1ugA70rgtWY{fill: rgb(57,57,57);}#el_qOHKNlzCzDG{fill: rgb(16,69,70);}#el_6EcJBP6bwa7{fill: rgb(8,40,40);}#el_pR3m5Alvt_e{fill: rgb(40,40,38);}#el__iMn98Iq1YG{fill: rgb(62,62,59);}#el_OF_VZ7hQ2UD{fill: rgb(8,40,40);}#el_PnYmHgrBHIO{fill: rgb(40,40,38);}#el_BHJAucj5XAR{fill: rgb(62,62,59);}#el_qCwOAeyIUJh{stroke: none;fill: #155E60;stroke-miterlimit: 10;}#el_zB0I1pstsUn{stroke: none;fill: #155E60;stroke-miterlimit: 10;}#el_GitTozW3ylj{stroke: none;fill: #155E60;stroke-miterlimit: 10;}#el_zDMUDDE_WuJ{-webkit-transform: matrix(1,0,0,1,0,0);transform: matrix(1,0,0,1,0,0);fill: rgb(44,207,253);}#el_pljK1RA0EYt{-webkit-transform: matrix(0.911,-0.413,0.285,0.969,-57.359,702.316);transform: matrix(0.911,-0.413,0.285,0.969,-57.359,702.316);fill: rgb(255,255,255);}#el_tgKBDX484lr{-webkit-transform: matrix(0.911,-0.413,0.285,0.969,-72.102,705.733);transform: matrix(0.911,-0.413,0.285,0.969,-72.102,705.733);fill: rgb(255,255,255);}#el_YBtNtr11S3P{-webkit-transform: matrix(0.911,-0.413,0.285,0.969,-85.763,705.418);transform: matrix(0.911,-0.413,0.285,0.969,-85.763,705.418);fill: rgb(255,255,255);}#el_iwkEgk-Koqx{-webkit-transform: matrix(0.911,-0.413,0.285,0.969,-91.267,713.476);transform: matrix(0.911,-0.413,0.285,0.969,-91.267,713.476);fill: rgb(255,255,255);}#el__LZ0ksk4b5D{fill: rgb(44,207,253);}#el_l3Wv0cxN2eU{-webkit-transform: matrix(0.939,-0.343,0.343,0.939,-164.105,566.961);transform: matrix(0.939,-0.343,0.343,0.939,-164.105,566.961);fill: rgb(255,255,255);}#el_3cip_7wAnfj{-webkit-transform: matrix(0.939,-0.343,0.343,0.939,-185.324,562.513);transform: matrix(0.939,-0.343,0.343,0.939,-185.324,562.513);fill: rgb(255,255,255);}#el_B8JXRnuXvpH{-webkit-transform: matrix(0.939,-0.343,0.343,0.939,-194.318,574.844);transform: matrix(0.939,-0.343,0.343,0.939,-194.318,574.844);fill: rgb(255,255,255);}#el_zeWHThW6V8D{stroke: none;fill: #E3E30F;stroke-miterlimit: 10;}#el_diqEEThP5U5{stroke: none;fill: #282826;stroke-miterlimit: 10;}#el_b9qsrORRLZz{stroke: none;fill: #E3E30F;stroke-miterlimit: 10;}#el_VGVVbR_OiVa{stroke: none;fill: #3E3E3B;stroke-miterlimit: 10;}#el_wzhPSwE_9Ry{stroke: none;fill: #282826;stroke-miterlimit: 10;}#el_NyKWu2lVOQi{fill: rgb(45,44,44);}#el_JUC1GR6p0S8{fill: rgb(45,44,44);}#el_vztkMuRyWaq{fill: rgb(45,44,44);}#el_T_xMbpTrsBm{stroke: none;fill: #282826;stroke-miterlimit: 10;}#el_Vhmb9IvcRx_an_LGdWOuPWE{-webkit-animation-fill-mode: backwards;animation-fill-mode: backwards;-webkit-transform: translate(16px, 243px) scale(1, 1) translate(-16px, -243px);transform: translate(16px, 243px) scale(1, 1) translate(-16px, -243px);-webkit-animation-name: kf_el_Vhmb9IvcRx_an_LGdWOuPWE;animation-name: kf_el_Vhmb9IvcRx_an_LGdWOuPWE;-webkit-animation-timing-function: cubic-bezier(0, 0, 1, 1);animation-timing-function: cubic-bezier(0, 0, 1, 1);}#el_-9WNwiIF4A_an_UVkkc3XdJ{-webkit-animation-fill-mode: backwards;animation-fill-mode: backwards;-webkit-transform: translate(1615.8599853515625px, 260px) scale(1, 1) translate(-1615.8599853515625px, -260px);transform: translate(1615.8599853515625px, 260px) scale(1, 1) translate(-1615.8599853515625px, -260px);-webkit-animation-name: kf_el_-9WNwiIF4A_an_UVkkc3XdJ;animation-name: kf_el_-9WNwiIF4A_an_UVkkc3XdJ;-webkit-animation-timing-function: cubic-bezier(0, 0, 1, 1);animation-timing-function: cubic-bezier(0, 0, 1, 1);}#el__VBZkm5VxZv_an_EVIEpy6em{-webkit-animation-fill-mode: backwards;animation-fill-mode: backwards;-webkit-transform: translate(506.97601318359375px, 132px) scale(1, 1) translate(-506.97601318359375px, -132px);transform: translate(506.97601318359375px, 132px) scale(1, 1) translate(-506.97601318359375px, -132px);-webkit-animation-name: kf_el__VBZkm5VxZv_an_EVIEpy6em;animation-name: kf_el__VBZkm5VxZv_an_EVIEpy6em;-webkit-animation-timing-function: cubic-bezier(0, 0, 1, 1);animation-timing-function: cubic-bezier(0, 0, 1, 1);}#el_YQY8rcaqLPv_an_2DfQq7uQx{-webkit-animation-fill-mode: backwards;animation-fill-mode: backwards;-webkit-transform: translate(1249.8199462890625px, 76.5px) scale(1, 1) translate(-1249.8199462890625px, -76.5px);transform: translate(1249.8199462890625px, 76.5px) scale(1, 1) translate(-1249.8199462890625px, -76.5px);-webkit-animation-name: kf_el_YQY8rcaqLPv_an_2DfQq7uQx;animation-name: kf_el_YQY8rcaqLPv_an_2DfQq7uQx;-webkit-animation-timing-function: cubic-bezier(0, 0, 1, 1);animation-timing-function: cubic-bezier(0, 0, 1, 1);}#el_KsN4_MBvpFN_an_YhXp4XSsy{-webkit-animation-fill-mode: backwards;animation-fill-mode: backwards;-webkit-transform: translate(1280.4739990234375px, 663.6567993164062px) translate(-1280.4739990234375px, -663.6567993164062px) translate(635px, 0px);transform: translate(1280.4739990234375px, 663.6567993164062px) translate(-1280.4739990234375px, -663.6567993164062px) translate(635px, 0px);-webkit-animation-name: kf_el_KsN4_MBvpFN_an_YhXp4XSsy;animation-name: kf_el_KsN4_MBvpFN_an_YhXp4XSsy;-webkit-animation-timing-function: cubic-bezier(0.42, 0, 0.58, 1);animation-timing-function: cubic-bezier(0.42, 0, 0.58, 1);}</style><defs><clipPath id="_clipPath_FqwAzKIn4cN3P7lqxoXKk7uuAmcTa4yX"><rect width="1920" height="1080"/></clipPath></defs><g clip-path="url(#_clipPath_FqwAzKIn4cN3P7lqxoXKk7uuAmcTa4yX)" id="el_KwgR8FGkSK"><g id="el_cLYNNDYnNg"><rect x="0" y="0" width="1920" height="1080" id="el_WXUXe6_HNC"/><ellipse vector-effect="non-scaling-stroke" cx="943.0172979914198" cy="194.00000000000045" rx="161.6382252559727" ry="148.00000000000006" id="el_OfBLT4nusw"/></g><g id="el_Vhmb9IvcRx_an_LGdWOuPWE" data-animator-group="true" data-animator-type="2"><g id="el_Vhmb9IvcRx"><path d="M 129.4 258.766 L 31.028 258.766 C 22.734 258.766 16 265.5 16 273.795 L 16 275.271 C 16 283.565 22.734 290.299 31.028 290.299 L 129.4 290.299 C 137.694 290.299 144.428 283.565 144.428 275.271 L 144.428 273.795 C 144.428 265.5 137.694 258.766 129.4 258.766 Z" id="el_lS2sZuYEoW"/><path d="M 157.4 243 L 59.028 243 C 50.734 243 44 249.734 44 258.028 L 44 259.505 C 44 267.799 50.734 274.533 59.028 274.533 L 157.4 274.533 C 165.694 274.533 172.428 267.799 172.428 259.505 L 172.428 258.028 C 172.428 249.734 165.694 243 157.4 243 Z" id="el_On48q4t6RN"/><path d="M 193.697 258.766 L 63.483 258.766 C 52.73 258.766 44 267.497 44 278.249 L 44 279.515 C 44 290.268 52.73 298.998 63.483 298.998 L 193.697 298.998 C 204.449 298.998 213.18 290.268 213.18 279.515 L 213.18 278.249 C 213.18 267.497 204.449 258.766 193.697 258.766 Z" id="el_LY5gP9L-Fa"/><path d="M 150.27 278.882 L 34.515 278.882 C 24.296 278.882 16 287.179 16 297.397 L 16 300.599 C 16 310.818 24.296 319.114 34.515 319.114 L 150.27 319.114 C 160.489 319.114 168.785 310.818 168.785 300.599 L 168.785 297.397 C 168.785 287.179 160.489 278.882 150.27 278.882 Z" id="el_OcjTseZNhL"/></g></g><g id="el_-9WNwiIF4A_an_UVkkc3XdJ" data-animator-group="true" data-animator-type="2"><g id="el_-9WNwiIF4A"><path d="M 1680.928 306.869 L 1757.328 306.869 C 1763.77 306.869 1769 301.639 1769 295.197 L 1769 294.051 C 1769 287.609 1763.77 282.379 1757.328 282.379 L 1680.928 282.379 C 1674.486 282.379 1669.256 287.609 1669.256 294.051 L 1669.256 295.197 C 1669.256 301.639 1674.486 306.869 1680.928 306.869 Z" id="el_RCcCTRNT1x"/><path d="M 1659.182 319.114 L 1735.582 319.114 C 1742.024 319.114 1747.254 313.884 1747.254 307.442 L 1747.254 306.296 C 1747.254 299.854 1742.024 294.624 1735.582 294.624 L 1659.182 294.624 C 1652.74 294.624 1647.51 299.854 1647.51 306.296 L 1647.51 307.442 C 1647.51 313.884 1652.74 319.114 1659.182 319.114 Z" id="el_BUNsVnNU6c"/><path d="M 1630.992 306.869 L 1732.122 306.869 C 1740.474 306.869 1747.254 300.089 1747.254 291.738 L 1747.254 290.754 C 1747.254 282.403 1740.474 275.623 1732.122 275.623 L 1630.992 275.623 C 1622.641 275.623 1615.86 282.403 1615.86 290.754 L 1615.86 291.738 C 1615.86 300.089 1622.641 306.869 1630.992 306.869 Z" id="el_MfMRkRZwIK"/><path d="M 1664.719 291.246 L 1754.62 291.246 C 1762.557 291.246 1769 284.803 1769 276.866 L 1769 274.38 C 1769 266.443 1762.557 260 1754.62 260 L 1664.719 260 C 1656.782 260 1650.339 266.443 1650.339 274.38 L 1650.339 276.866 C 1650.339 284.803 1656.782 291.246 1664.719 291.246 Z" id="el_mcc3t9NYUH"/></g></g><g id="el_RgMhYtIiLP"><polygon points="960,746.078,268.655,746.078,614.328,252" id="el_iq0sr0cWs9_"/><clipPath id="_clipPath_w7WKqDGgouuljY560dh3cHyC5wvjIxGy"><polygon points="960,746.078,268.655,746.078,614.328,252" fill="rgb(1,183,196)"/></clipPath><g clip-path="url(#_clipPath_w7WKqDGgouuljY560dh3cHyC5wvjIxGy)" id="el_NQZ0UwhXlP9"><path d="M 561.402 263.742 L 563.175 263.742 C 580.657 263.742 594.85 277.936 594.85 295.418 L 594.85 367.941 C 594.85 385.423 580.657 399.617 563.175 399.617 L 561.402 399.617 C 543.92 399.617 529.726 385.423 529.726 367.941 L 529.726 295.418 C 529.726 277.936 543.92 263.742 561.402 263.742 Z" id="el_cVutL09VtAu"/><path d="M 613.441 246.968 L 615.214 246.968 C 632.696 246.968 646.89 261.161 646.89 278.643 L 646.89 351.166 C 646.89 368.649 632.696 382.842 615.214 382.842 L 613.441 382.842 C 595.959 382.842 581.765 368.649 581.765 351.166 L 581.765 278.643 C 581.765 261.161 595.959 246.968 613.441 246.968 Z" id="el_ZP3Pe0oApBL"/><path d="M 662.909 252 L 664.683 252 C 682.165 252 696.358 266.193 696.358 283.676 L 696.358 356.199 C 696.358 373.681 682.165 387.874 664.683 387.874 L 662.909 387.874 C 645.427 387.874 631.234 373.681 631.234 356.199 L 631.234 283.676 C 631.234 266.193 645.427 252 662.909 252 Z" id="el_gbLt69Ul6eb"/></g><polygon points="715.45,746.078,-64.55,746.078,325.45,157" id="el_Zm1HPZOj0bm"/><clipPath id="_clipPath_EVciZRpXnACBVZEgI9o2nBy1Q46j66Q1"><polygon points="715.45,746.078,-64.55,746.078,325.45,157" fill="rgb(1,183,196)"/></clipPath><g clip-path="url(#_clipPath_EVciZRpXnACBVZEgI9o2nBy1Q46j66Q1)" id="el_MTr4ThWq46y"><path d="M 266.738 157 L 266.738 157 C 287.014 157 303.476 173.462 303.476 193.738 L 303.476 282.262 C 303.476 302.538 287.014 319 266.738 319 L 266.738 319 C 246.462 319 230 302.538 230 282.262 L 230 193.738 C 230 173.462 246.462 157 266.738 157 Z" id="el_DRz39heqqWM"/><path d="M 325.45 133 L 325.45 133 C 345.726 133 362.188 149.462 362.188 169.738 L 362.188 258.262 C 362.188 278.538 345.726 295 325.45 295 L 325.45 295 C 305.174 295 288.712 278.538 288.712 258.262 L 288.712 169.738 C 288.712 149.462 305.174 133 325.45 133 Z" id="el_2EQ5CjgJXgB"/><path d="M 381.262 157 L 381.262 157 C 401.538 157 418 173.462 418 193.738 L 418 282.262 C 418 302.538 401.538 319 381.262 319 L 381.262 319 C 360.986 319 344.524 302.538 344.524 282.262 L 344.524 193.738 C 344.524 173.462 360.986 157 381.262 157 Z" id="el_kiUZSHdomJ0"/></g></g><g id="el_il6hwmCL309"><polygon points="1653.094,657,573,657,1113.047,67.922" id="el_e9sKML0z-dQ"/><clipPath id="_clipPath_QCLKpbt8qC01NDwEkISL00GMB81RTZAd"><polygon points="1653.094,657,573,657,1113.047,67.922" fill="rgb(1,183,196)"/></clipPath><g clip-path="url(#_clipPath_QCLKpbt8qC01NDwEkISL00GMB81RTZAd)" id="el_2vDmuPhOJKV"><path d="M 1024.105 67.922 L 1039.387 67.922 C 1063.246 67.922 1082.618 87.293 1082.618 111.153 L 1082.618 186.691 C 1082.618 210.551 1063.246 229.922 1039.387 229.922 L 1024.105 229.922 C 1000.245 229.922 980.874 210.551 980.874 186.691 L 980.874 111.153 C 980.874 87.293 1000.245 67.922 1024.105 67.922 Z" id="el_Tp-S1jbJAwU"/><path d="M 1105.406 43.922 L 1120.688 43.922 C 1144.548 43.922 1163.919 63.293 1163.919 87.153 L 1163.919 162.691 C 1163.919 186.551 1144.548 205.922 1120.688 205.922 L 1105.406 205.922 C 1081.546 205.922 1062.175 186.551 1062.175 162.691 L 1062.175 87.153 C 1062.175 63.293 1081.546 43.922 1105.406 43.922 Z" id="el_qHa9I2yPuXP"/><path d="M 945.135 101 L 960.417 101 C 984.277 101 1003.648 120.371 1003.648 144.231 L 1003.648 219.769 C 1003.648 243.629 984.277 263 960.417 263 L 945.135 263 C 921.275 263 901.904 243.629 901.904 219.769 L 901.904 144.231 C 901.904 120.371 921.275 101 945.135 101 Z" id="el_eWtm-7Hy1Vw"/><path d="M 1024.105 72.922 L 1039.387 72.922 C 1063.246 72.922 1082.618 92.293 1082.618 116.153 L 1082.618 191.691 C 1082.618 215.551 1063.246 234.922 1039.387 234.922 L 1024.105 234.922 C 1000.245 234.922 980.874 215.551 980.874 191.691 L 980.874 116.153 C 980.874 92.293 1000.245 72.922 1024.105 72.922 Z" id="el_kB7JYSSUJNA"/><path d="M 1182.691 67.922 L 1197.973 67.922 C 1221.833 67.922 1241.204 87.293 1241.204 111.153 L 1241.204 186.691 C 1241.204 210.551 1221.833 229.922 1197.973 229.922 L 1182.691 229.922 C 1158.831 229.922 1139.46 210.551 1139.46 186.691 L 1139.46 111.153 C 1139.46 87.293 1158.831 67.922 1182.691 67.922 Z" id="el_QPW7-5-C00n"/></g><polygon points="1239,752,1833,752,1536,162.922" id="el_KQyYW3-uXTk"/><clipPath id="_clipPath_FP0jv8u49jvRisZMLQo9kmaqP4x3kC7W"><polygon points="1239,752,1833,752,1536,162.922" fill="rgb(1,183,196)"/></clipPath><g clip-path="url(#_clipPath_FP0jv8u49jvRisZMLQo9kmaqP4x3kC7W)" id="el_Yt9WfeP5xXr"><path d="M 1580.712 162.922 L 1580.712 162.922 C 1565.271 162.922 1552.735 177.287 1552.735 194.982 L 1552.735 292.862 C 1552.735 310.556 1565.271 324.922 1580.712 324.922 L 1580.712 324.922 C 1596.153 324.922 1608.689 310.556 1608.689 292.862 L 1608.689 194.982 C 1608.689 177.287 1596.153 162.922 1580.712 162.922 Z" id="el_2TKWU3EDR8-"/><path d="M 1536 138.922 L 1536 138.922 C 1520.559 138.922 1508.023 153.287 1508.023 170.982 L 1508.023 268.862 C 1508.023 286.556 1520.559 300.922 1536 300.922 L 1536 300.922 C 1551.441 300.922 1563.977 286.556 1563.977 268.862 L 1563.977 170.982 C 1563.977 153.287 1551.441 138.922 1536 138.922 Z" id="el_1txp64SiLbr"/><path d="M 1624.141 196 L 1624.141 196 C 1608.7 196 1596.164 210.365 1596.164 228.06 L 1596.164 325.94 C 1596.164 343.635 1608.7 358 1624.141 358 L 1624.141 358 C 1639.582 358 1652.118 343.635 1652.118 325.94 L 1652.118 228.06 C 1652.118 210.365 1639.582 196 1624.141 196 Z" id="el_G84nq9BPuqQ"/><path d="M 1580.712 167.922 L 1580.712 167.922 C 1565.271 167.922 1552.735 182.287 1552.735 199.982 L 1552.735 297.862 C 1552.735 315.556 1565.271 329.922 1580.712 329.922 L 1580.712 329.922 C 1596.153 329.922 1608.689 315.556 1608.689 297.862 L 1608.689 199.982 C 1608.689 182.287 1596.153 167.922 1580.712 167.922 Z" id="el_OsvFOeB3U65"/><path d="M 1493.497 162.922 L 1493.497 162.922 C 1478.056 162.922 1465.52 177.287 1465.52 194.982 L 1465.52 292.862 C 1465.52 310.556 1478.056 324.922 1493.497 324.922 L 1493.497 324.922 C 1508.938 324.922 1521.474 310.556 1521.474 292.862 L 1521.474 194.982 C 1521.474 177.287 1508.938 162.922 1493.497 162.922 Z" id="el_PK1ubGltt0d"/></g><polygon points="1614,752,2011,752,1812.5,162.922" id="el_t0FInQq3WzW"/><clipPath id="_clipPath_A18qcRsY9SmRBWdkobZlh3qQWhGr9gFR"><polygon points="1614,752,2011,752,1812.5,162.922" fill="rgb(1,183,196)"/></clipPath><g clip-path="url(#_clipPath_A18qcRsY9SmRBWdkobZlh3qQWhGr9gFR)" id="el_pQkJPhxE6ZD"><path d="M 1842.383 162.922 L 1842.383 162.922 C 1832.063 162.922 1823.685 174.666 1823.685 189.132 L 1823.685 298.712 C 1823.685 313.178 1832.063 324.922 1842.383 324.922 L 1842.383 324.922 C 1852.703 324.922 1861.082 313.178 1861.082 298.712 L 1861.082 189.132 C 1861.082 174.666 1852.703 162.922 1842.383 162.922 Z" id="el_hfX8eVc-KQb"/><path d="M 1812.5 138.922 L 1812.5 138.922 C 1802.18 138.922 1793.801 150.666 1793.801 165.132 L 1793.801 274.712 C 1793.801 289.178 1802.18 300.922 1812.5 300.922 L 1812.5 300.922 C 1822.82 300.922 1831.199 289.178 1831.199 274.712 L 1831.199 165.132 C 1831.199 150.666 1822.82 138.922 1812.5 138.922 Z" id="el_QrdgWSfYVm9"/><path d="M 1871.409 196 L 1871.409 196 C 1861.089 196 1852.711 207.744 1852.711 222.21 L 1852.711 331.79 C 1852.711 346.256 1861.089 358 1871.409 358 L 1871.409 358 C 1881.729 358 1890.108 346.256 1890.108 331.79 L 1890.108 222.21 C 1890.108 207.744 1881.729 196 1871.409 196 Z" id="el_cHnyhI9IGBO"/><path d="M 1842.383 167.922 L 1842.383 167.922 C 1832.063 167.922 1823.685 179.666 1823.685 194.132 L 1823.685 303.712 C 1823.685 318.178 1832.063 329.922 1842.383 329.922 L 1842.383 329.922 C 1852.703 329.922 1861.082 318.178 1861.082 303.712 L 1861.082 194.132 C 1861.082 179.666 1852.703 167.922 1842.383 167.922 Z" id="el_ORZuXSfFVh1"/><path d="M 1784.093 162.922 L 1784.093 162.922 C 1773.773 162.922 1765.395 174.666 1765.395 189.132 L 1765.395 298.712 C 1765.395 313.178 1773.773 324.922 1784.093 324.922 L 1784.093 324.922 C 1794.413 324.922 1802.792 313.178 1802.792 298.712 L 1802.792 189.132 C 1802.792 174.666 1794.413 162.922 1784.093 162.922 Z" id="el_GMhzdeOWsoX"/></g></g><g id="el_1WlzUurz7UM"><g id="el_J5Krz-pNCwm"><path d=" M 517.542 500.138 C 524.561 497.482 528.992 493.57 528.992 489.213 C 528.992 481.207 514.029 474.707 495.598 474.707 C 477.167 474.707 462.203 481.207 462.203 489.213 C 462.203 493.57 466.635 497.482 473.653 500.138 L 517.542 500.138 L 517.542 500.138 Z " id="el_dAPct_mqSWN"/><path d=" M 498.391 500.138 C 499.829 498.745 500.62 497.201 500.62 495.578 C 500.62 489.347 488.975 484.289 474.632 484.289 C 460.289 484.289 448.644 489.347 448.644 495.578 C 448.644 497.201 449.435 498.745 450.873 500.138 L 498.391 500.138 L 498.391 500.138 Z " id="el_LgIefO28LQI"/><path d=" M 461.265 500.138 C 459.924 497.65 454.778 495.8 448.644 495.8 C 442.511 495.8 437.364 497.65 436.024 500.138 L 461.265 500.138 L 461.265 500.138 Z " id="el_3lHAfOD849R"/><path d=" M 548.111 500.138 C 560.034 496.84 567.938 491.047 567.938 484.459 C 567.938 474.195 548.757 465.862 525.13 465.862 C 501.503 465.862 482.322 474.195 482.322 484.459 C 482.322 491.047 490.226 496.84 502.149 500.138 L 548.111 500.138 L 548.111 500.138 Z " id="el_y4_dHJCVuiE"/><path d=" M 568.663 500.138 C 568.663 496.144 576.126 492.902 585.319 492.902 C 594.512 492.902 601.976 496.144 601.976 500.138 L 568.663 500.138 L 568.663 500.138 Z " id="el_b3gtbO7NHwO"/><line x1="580.48" y1="500.138" x2="580.48" y2="500.138" id="el_K8M7ge1wsYN"/><path d=" M 580.48 500.138 C 583.547 497.943 585.319 495.37 585.319 492.617 C 585.319 484.63 570.392 478.146 552.006 478.146 C 533.62 478.146 518.693 484.63 518.693 492.617 C 518.693 495.37 520.465 497.943 523.532 500.138 L 580.48 500.138" id="el_pvuyuT5OmMy"/></g><g id="el_Q4XXYDYQSpW"><path d=" M 150.075 584.514 C 153.188 572.638 152.232 557.185 146.531 541.673 C 136.057 513.169 113.508 495.189 96.208 501.546 C 78.908 507.903 73.367 536.206 83.841 564.71 C 89.541 580.222 98.817 592.617 108.879 599.652 L 150.075 584.514 L 150.075 584.514 Z " id="el_WiV_-4IWUTN"/><path d=" M 132.099 591.12 C 131.628 585.667 130.35 579.898 128.226 574.118 C 120.075 551.937 102.527 537.944 89.065 542.892 C 75.602 547.839 71.289 569.864 79.44 592.045 C 81.564 597.825 84.326 603.049 87.497 607.509 L 132.099 591.12 L 132.099 591.12 Z " id="el_h38Wstj2-te"/><path d=" M 97.251 603.925 C 92.739 595.531 85.488 590.72 79.731 592.835 C 73.974 594.951 71.563 603.312 73.559 612.631 L 97.251 603.925 L 97.251 603.925 Z " id="el_G9BekEuHye8"/><path d=" M 178.768 573.97 C 185.645 558.12 185.487 534.77 176.867 511.313 C 163.441 474.774 134.535 451.725 112.358 459.874 C 90.181 468.024 83.078 504.305 96.504 540.844 C 105.124 564.3 120.122 582.197 135.626 589.824 L 178.768 573.97 L 178.768 573.97 Z " id="el_KjjmDnGvzjw"/><path d=" M 198.059 566.882 C 192.834 552.664 195.598 538.548 204.227 535.377 C 212.856 532.206 224.103 541.174 229.328 555.391 L 198.059 566.882 L 198.059 566.882 Z " id="el_TjzH96uMkn9"/><line x1="209.151" y1="562.806" x2="209.151" y2="562.806" id="el_oseNAB_4uml"/><path d=" M 209.151 562.806 C 209.159 553.936 207.456 544.162 203.855 534.364 C 193.406 505.93 170.912 487.993 153.654 494.335 C 136.397 500.677 130.868 528.91 141.317 557.345 C 144.918 567.143 149.948 575.694 155.697 582.448 L 209.151 562.806" id="el_WNtTjlYTpUR"/></g><g id="el_20bu9YMxXbM"><path d=" M 833.073 549.218 C 829.96 537.342 830.917 521.889 836.617 506.377 C 847.091 477.873 869.64 459.893 886.94 466.25 C 904.24 472.607 909.782 500.91 899.307 529.414 C 893.607 544.926 884.331 557.321 874.269 564.356 L 833.073 549.218 L 833.073 549.218 Z " id="el_4_Q9rV1NBO-"/><path d=" M 851.049 555.824 C 851.52 550.371 852.798 544.602 854.922 538.822 C 863.073 516.641 880.621 502.648 894.083 507.596 C 907.546 512.543 911.859 534.568 903.708 556.749 C 901.584 562.529 898.822 567.753 895.651 572.213 L 851.049 555.824 L 851.049 555.824 Z " id="el_hkzP0d5PPVf"/><path d=" M 885.897 568.629 C 890.409 560.235 897.66 555.424 903.417 557.539 C 909.174 559.655 911.585 568.016 909.589 577.335 L 885.897 568.629 L 885.897 568.629 Z " id="el_qGyxzV_RWeZ"/><path d=" M 804.38 538.674 C 797.503 522.824 797.661 499.473 806.281 476.017 C 819.708 439.478 848.613 416.429 870.79 424.578 C 892.967 432.728 900.07 469.009 886.644 505.548 C 878.024 529.004 863.026 546.901 847.522 554.527 L 804.38 538.674 L 804.38 538.674 Z " id="el_gYcgy8RT_a5"/><path d=" M 785.09 531.586 C 790.314 517.368 787.55 503.251 778.921 500.081 C 770.292 496.91 759.045 505.878 753.82 520.095 L 785.09 531.586 L 785.09 531.586 Z " id="el_pSl3SEmQLim"/><line x1="773.997" y1="527.51" x2="773.997" y2="527.51" id="el_s-OQq8A65JV"/><path d=" M 773.997 527.51 C 773.989 518.64 775.692 508.866 779.293 499.068 C 789.742 470.634 812.236 452.697 829.494 459.039 C 846.752 465.381 852.28 493.614 841.831 522.049 C 838.231 531.847 833.2 540.398 827.451 547.152 L 773.997 527.51" id="el_UkM3Qg1e-s9"/></g><g id="el_QOemTy6SJi5"><path d=" M 1516.36 476.903 C 1511.2 467.422 1506.834 453.036 1504.673 436.651 C 1500.703 406.545 1505.674 381.021 1515.767 379.69 C 1525.859 378.359 1537.277 401.721 1541.247 431.828 C 1543.408 448.212 1542.92 463.239 1540.394 473.733 L 1516.36 476.903 L 1516.36 476.903 Z " id="el_ssx4aBCcrvL"/><path d=" M 1526.848 475.52 C 1525.37 470.389 1524.171 464.64 1523.366 458.535 C 1520.277 435.106 1524.145 415.244 1531.999 414.208 C 1539.853 413.173 1548.738 431.353 1551.828 454.782 C 1552.633 460.887 1552.966 466.75 1552.868 472.088 L 1526.848 475.52 L 1526.848 475.52 Z " id="el_vyxnWNZA8hM"/><path d=" M 1547.178 472.839 C 1546.678 463.387 1548.579 456.059 1551.938 455.616 C 1555.297 455.173 1559.032 461.758 1561 471.016 L 1547.178 472.839 L 1547.178 472.839 Z " id="el_VyhnTAqZy3k"/><path d=" M 1499.62 479.11 C 1491.457 467.573 1484.256 446.36 1480.988 421.585 C 1475.899 382.991 1482.271 350.273 1495.209 348.567 C 1508.147 346.86 1522.783 376.808 1527.873 415.402 C 1531.14 440.178 1529.683 462.532 1524.79 475.791 L 1499.62 479.11 L 1499.62 479.11 Z " id="el_YntpnHMVbE_"/><path d=" M 1488.367 480.594 C 1486.386 465.578 1480.691 453.925 1475.657 454.589 C 1470.623 455.253 1468.144 467.983 1470.124 483 L 1488.367 480.594 L 1488.367 480.594 Z " id="el_Qgoez1jdfQC"/><line x1="1481.895" y1="481.448" x2="1481.895" y2="481.448" id="el_hNEzkue9FTp"/><path d=" M 1481.895 481.448 C 1479.128 473.419 1476.881 463.868 1475.516 453.519 C 1471.556 423.486 1476.514 398.025 1486.583 396.697 C 1496.651 395.369 1508.041 418.675 1512.001 448.708 C 1513.366 459.057 1513.672 468.863 1513.08 477.335 L 1481.895 481.448" id="el_G8g3Lak0Nv4"/></g><g id="el_1IGjEDMktUG"><path d=" M 1131.757 484.473 C 1128.575 477.783 1127.132 468.28 1128.236 457.983 C 1130.264 439.063 1140.129 424.583 1150.251 425.668 C 1160.373 426.753 1166.945 442.995 1164.917 461.915 C 1163.813 472.212 1160.388 481.194 1155.861 487.057 L 1131.757 484.473 L 1131.757 484.473 Z " id="el_7zN8DCqPkDR"/><path d=" M 1142.275 485.601 C 1141.838 482.226 1141.795 478.531 1142.206 474.694 C 1143.784 459.97 1151.461 448.702 1159.338 449.546 C 1167.215 450.391 1172.329 463.03 1170.751 477.754 C 1170.34 481.591 1169.514 485.193 1168.372 488.398 L 1142.275 485.601 L 1142.275 485.601 Z " id="el_IdyyIZ7TFuo"/><path d=" M 1162.665 487.786 C 1164.031 481.986 1167.326 477.917 1170.695 478.278 C 1174.063 478.639 1176.421 483.314 1176.527 489.272 L 1162.665 487.786 L 1162.665 487.786 Z " id="el_eKYz0kiLnyC"/><path d=" M 1114.969 482.674 C 1109.256 474.18 1106.382 460.025 1108.051 444.455 C 1110.651 420.2 1123.297 401.638 1136.272 403.029 C 1149.248 404.42 1157.672 425.241 1155.072 449.495 C 1153.403 465.065 1147.594 478.289 1140.211 485.379 L 1114.969 482.674 L 1114.969 482.674 Z " id="el_BzVA0gIoxNg"/><path d=" M 1103.682 481.464 C 1104.694 472.026 1101.416 463.925 1096.367 463.384 C 1091.318 462.843 1086.398 470.065 1085.386 479.503 L 1103.682 481.464 L 1103.682 481.464 Z " id="el_S0Cvcy3yEYY"/><line x1="1097.192" y1="480.768" x2="1097.192" y2="480.768" id="el_M7mE26gNsG3"/><path d=" M 1097.192 480.768 C 1096.063 475.402 1095.742 469.216 1096.439 462.712 C 1098.462 443.837 1108.303 429.392 1118.401 430.475 C 1128.498 431.557 1135.054 447.76 1133.03 466.634 C 1132.333 473.138 1130.708 479.116 1128.468 484.121 L 1097.192 480.768" id="el_5U700yxwjMH"/></g><g id="el_O29kemjTtQC"><path d=" M 1002.311 505.111 C 995.333 498.015 991.494 488.254 992.598 477.958 C 994.626 459.037 1012.582 445.424 1032.672 447.578 C 1052.761 449.731 1067.425 466.841 1065.396 485.761 C 1064.293 496.058 1058.472 504.783 1050.149 510.239 L 1002.311 505.111 L 1002.311 505.111 Z " id="el_dCDLZLeTAFr"/><path d=" M 1023.186 507.349 C 1021.971 503.891 1021.5 500.15 1021.911 496.313 C 1023.489 481.589 1037.463 470.996 1053.097 472.672 C 1068.73 474.348 1080.141 487.662 1078.563 502.386 C 1078.152 506.223 1076.899 509.779 1074.978 512.901 L 1023.186 507.349 L 1023.186 507.349 Z " id="el_FfE_Zvbl1nW"/><path d=" M 1063.652 511.686 C 1065.743 505.964 1071.821 502.194 1078.507 502.91 C 1085.192 503.627 1090.333 508.6 1091.164 514.636 L 1063.652 511.686 L 1063.652 511.686 Z " id="el_jIWv_6BweGf"/><path d=" M 968.991 501.54 C 956.831 492.355 949.683 477.741 951.352 462.171 C 953.952 437.917 976.97 420.467 1002.723 423.227 C 1028.475 425.988 1047.272 447.92 1044.672 472.175 C 1043.003 487.745 1032.92 500.511 1019.09 506.91 L 968.991 501.54 L 968.991 501.54 Z " id="el_PmFdlZ9r7_f"/><path d=" M 946.591 499.138 C 947.602 489.701 940.288 481.167 930.268 480.093 C 920.248 479.019 911.291 485.809 910.28 495.246 L 946.591 499.138 L 946.591 499.138 Z " id="el_G4FQOaWSTtl"/><line x1="933.71" y1="497.758" x2="933.71" y2="497.758" id="el_68V3XNbbyys"/><path d=" M 933.71 497.758 C 930.923 492.214 929.643 485.925 930.34 479.421 C 932.363 460.547 950.276 446.967 970.317 449.115 C 990.357 451.263 1004.985 468.331 1002.962 487.206 C 1002.265 493.709 999.681 499.585 995.783 504.411 L 933.71 497.758" id="el_sbUc90Rbr_r"/></g><g id="el_oyMd-Uw3p82"><path d=" M 340.257 513.215 C 332.013 507.641 326.316 498.835 325.358 488.524 C 323.598 469.576 338.502 452.676 358.62 450.807 C 378.738 448.939 396.5 462.805 398.26 481.752 C 399.218 492.063 395.24 501.768 388.163 508.765 L 340.257 513.215 L 340.257 513.215 Z " id="el_HKmDx6mozl1"/><path d=" M 361.162 511.273 C 359.286 508.125 358.083 504.551 357.727 500.709 C 356.357 485.964 367.955 472.813 383.611 471.358 C 399.267 469.904 413.089 480.694 414.459 495.439 C 414.816 499.281 414.292 503.015 413.028 506.456 L 361.162 511.273 L 361.162 511.273 Z " id="el_yBCfAOoKZ48"/><path d=" M 401.685 507.509 C 402.602 501.486 407.813 496.586 414.507 495.964 C 421.202 495.342 427.226 499.199 429.236 504.95 L 401.685 507.509 L 401.685 507.509 Z " id="el_Qtd-feorwjj"/><path d=" M 306.89 516.314 C 293.152 509.72 283.251 496.812 281.802 481.22 C 279.546 456.932 298.652 435.268 324.441 432.872 C 350.23 430.477 372.999 448.251 375.255 472.54 C 376.703 488.132 369.348 502.643 357.06 511.654 L 306.89 516.314 L 306.89 516.314 Z " id="el_vzXI8_qSsKh"/><path d=" M 284.458 518.398 C 283.58 508.947 274.721 502.031 264.687 502.963 C 254.652 503.895 247.218 512.325 248.096 521.775 L 284.458 518.398 L 284.458 518.398 Z " id="el_6aMk66c91t6"/><line x1="271.559" y1="519.596" x2="271.559" y2="519.596" id="el_iO-yEJZWDTv"/><path d=" M 271.559 519.596 C 267.729 514.714 265.229 508.803 264.624 502.29 C 262.868 483.389 277.736 466.53 297.805 464.666 C 317.874 462.802 335.593 476.634 337.349 495.535 C 337.954 502.048 336.585 508.319 333.72 513.822 L 271.559 519.596" id="el_cwv7EqqZfKy"/></g></g><g id="el_hAq0XniBT_L"><ellipse vector-effect="non-scaling-stroke" cx="518.9999999999999" cy="739.0000000000003" rx="567" ry="246" id="el_fEXUyMoBWg_"/><ellipse vector-effect="non-scaling-stroke" cx="1063.910242557376" cy="709" rx="310.08975744262375" ry="246" id="el_MHNO6lkIt2u"/><ellipse vector-effect="non-scaling-stroke" cx="1656.725106736697" cy="699.0000000000005" rx="531.2748932633029" ry="246" id="el_ZIVAIAxoxa5"/></g><g id="el_KA_zLs5H3DT"><ellipse vector-effect="non-scaling-stroke" cx="342.4999999999999" cy="959.4999999999993" rx="583.5" ry="319.5" id="el_G58vCwF37I-"/><ellipse vector-effect="non-scaling-stroke" cx="1011.5000000000001" cy="837.0000000000016" rx="702" ry="271" id="el_1FmLQsD2ho0"/><ellipse vector-effect="non-scaling-stroke" cx="2196" cy="938.0000000000016" rx="702" ry="271" id="el_UaPis3-hasY"/></g><g id="el_knJhIwRT5yX"><g id="el_c6hRWMUXD0a"><ellipse vector-effect="non-scaling-stroke" cx="963.3778306074539" cy="539.7742038774136" rx="35.14664045756126" ry="56.77420387741344" id="el_WiLDLaPPULb"/><polygon points="966.264,643,958.114,643,962.189,539.101" id="el_Q-NPJ_Ocq7w"/><polygon points="962.491,558.4,961.588,555.047,988.677,544.189" id="el_3amRLsV0Pq1"/><polygon points="961.864,564.479,962.491,562.152,935.541,550.781" id="el_qyUnWxOW7MQ"/></g><g id="el_FtMe1XGmzmG"><path d=" M 892.478 640.083 C 896.18 637.427 898.518 633.516 898.518 629.159 C 898.518 621.152 890.624 614.652 880.902 614.652 C 871.179 614.652 863.285 621.152 863.285 629.159 C 863.285 633.516 865.623 637.427 869.325 640.083 L 892.478 640.083 L 892.478 640.083 Z " id="el_zGy2aD5jrbN"/><path d=" M 882.375 640.083 C 883.134 638.691 883.551 637.147 883.551 635.523 C 883.551 629.293 877.408 624.234 869.842 624.234 C 862.276 624.234 856.133 629.293 856.133 635.523 C 856.133 637.147 856.55 638.691 857.309 640.083 L 882.375 640.083 L 882.375 640.083 Z " id="el_CP8S9C4MXj2"/><path d=" M 862.79 640.083 C 862.083 637.595 859.368 635.745 856.133 635.745 C 852.898 635.745 850.183 637.595 849.476 640.083 L 862.79 640.083 L 862.79 640.083 Z " id="el_aXgTKbh8YKU"/><path d=" M 908.603 640.083 C 914.893 636.786 919.063 630.993 919.063 624.404 C 919.063 614.14 908.944 605.808 896.48 605.808 C 884.017 605.808 873.898 614.14 873.898 624.404 C 873.898 630.993 878.068 636.786 884.357 640.083 L 908.603 640.083 L 908.603 640.083 Z " id="el_CVM52PZGXwC"/><path d=" M 919.445 640.083 C 919.445 636.089 923.382 632.847 928.231 632.847 C 933.081 632.847 937.018 636.089 937.018 640.083 L 919.445 640.083 L 919.445 640.083 Z " id="el_RPbcOdbQZpA"/><line x1="925.679" y1="640.083" x2="925.679" y2="640.083" id="el_BdZxffkAvoT"/><path d=" M 925.679 640.083 C 927.296 637.889 928.231 635.315 928.231 632.563 C 928.231 624.576 920.357 618.091 910.658 618.091 C 900.959 618.091 893.085 624.576 893.085 632.563 C 893.085 635.315 894.02 637.889 895.637 640.083 L 925.679 640.083" id="el_Z7SmUYUtzWt"/></g></g><g id="el_OapO38rDKlt"><g id="el_vNpnR6L2gHC"><ellipse vector-effect="non-scaling-stroke" cx="729.6156570287287" cy="619.0645264580575" rx="48.32662823128908" ry="78.0645264580586" id="el_0QWyXjdz5kd"/><polygon points="733.585,761,722.378,761,727.981,618.139" id="el_Wpqt-ZGHgYA"/><polygon points="728.396,644.675,727.154,640.064,764.401,625.135" id="el_e6XBMOUdGBd"/><polygon points="727.535,653.033,728.396,649.834,691.339,634.199" id="el_sKZDUWX9Po6"/></g><g id="el_5S7eEUmn1fa"><path d=" M 632.128 756.989 C 637.219 753.337 640.433 747.959 640.433 741.968 C 640.433 730.959 629.58 722.021 616.211 722.021 C 602.842 722.021 591.989 730.959 591.989 741.968 C 591.989 747.959 595.203 753.337 600.294 756.989 L 632.128 756.989 L 632.128 756.989 Z " id="el_pU5IgOWCofc"/><path d=" M 618.237 756.989 C 619.28 755.075 619.853 752.952 619.853 750.719 C 619.853 742.152 611.407 735.197 601.004 735.197 C 590.6 735.197 582.154 742.152 582.154 750.719 C 582.154 752.952 582.728 755.075 583.771 756.989 L 618.237 756.989 L 618.237 756.989 Z " id="el_OdM0x6JzPpv"/><path d=" M 591.308 756.989 C 590.336 753.568 586.603 751.024 582.154 751.024 C 577.705 751.024 573.972 753.568 573 756.989 L 591.308 756.989 L 591.308 756.989 Z " id="el_UGRe5Czucfv"/><path d=" M 654.301 756.989 C 662.948 752.455 668.682 744.49 668.682 735.43 C 668.682 721.318 654.769 709.861 637.632 709.861 C 620.494 709.861 606.581 721.318 606.581 735.43 C 606.581 744.49 612.315 752.455 620.962 756.989 L 654.301 756.989 L 654.301 756.989 Z " id="el_Zh6vhq8EZQI"/><path d=" M 669.207 756.989 C 669.207 751.498 674.621 747.04 681.289 747.04 C 687.957 747.04 693.371 751.498 693.371 756.989 L 669.207 756.989 L 669.207 756.989 Z " id="el_57yZcSftHdz"/><line x1="677.779" y1="756.989" x2="677.779" y2="756.989" id="el_soa6pnMhGtK"/><path d=" M 677.779 756.989 C 680.003 753.972 681.289 750.433 681.289 746.649 C 681.289 735.667 670.462 726.75 657.126 726.75 C 643.79 726.75 632.962 735.667 632.962 746.649 C 632.962 750.433 634.248 753.972 636.472 756.989 L 677.779 756.989" id="el_F-vD1jqjgym"/></g><g id="el_SdH5nd2Gn7T"><ellipse vector-effect="non-scaling-stroke" cx="1108.193738632748" cy="669.7742038774132" rx="66.62674648200436" ry="56.77420387741347" id="el_EvZiIadDWtZ"/><polygon points="1113.666,773,1098.216,773,1105.941,669.101" id="el_wMgXG_hiA6f"/><polygon points="1106.513,688.4,1104.8,685.047,1156.152,674.189" id="el_w4zaKGMrfKE"/><polygon points="1105.325,694.479,1106.513,692.152,1055.423,680.781" id="el_fIzG2t8XJE7"/></g><g id="el_pBAd0a6b7S5"><path d=" M 973.79 770.083 C 980.808 767.427 985.24 763.516 985.24 759.159 C 985.24 751.152 970.276 744.652 951.845 744.652 C 933.414 744.652 918.451 751.152 918.451 759.159 C 918.451 763.516 922.882 767.427 929.901 770.083 L 973.79 770.083 L 973.79 770.083 Z " id="el_3tOkdJCJha2"/><path d=" M 954.638 770.083 C 956.076 768.691 956.867 767.147 956.867 765.523 C 956.867 759.293 945.222 754.234 930.88 754.234 C 916.537 754.234 904.892 759.293 904.892 765.523 C 904.892 767.147 905.683 768.691 907.121 770.083 L 954.638 770.083 L 954.638 770.083 Z " id="el_HANSmH-7RgX"/><path d=" M 917.512 770.083 C 916.172 767.595 911.025 765.745 904.892 765.745 C 898.759 765.745 893.612 767.595 892.272 770.083 L 917.512 770.083 L 917.512 770.083 Z " id="el_v0zyxK9ubz0"/><path d=" M 1004.359 770.083 C 1016.281 766.786 1024.186 760.993 1024.186 754.404 C 1024.186 744.14 1005.004 735.808 981.378 735.808 C 957.751 735.808 938.569 744.14 938.569 754.404 C 938.569 760.993 946.474 766.786 958.396 770.083 L 1004.359 770.083 L 1004.359 770.083 Z " id="el_Y2HV5r-q_xs"/><path d=" M 1024.91 770.083 C 1024.91 766.089 1032.374 762.847 1041.567 762.847 C 1050.76 762.847 1058.224 766.089 1058.224 770.083 L 1024.91 770.083 L 1024.91 770.083 Z " id="el_ENyjGbC8LFg"/><line x1="1036.728" y1="770.083" x2="1036.728" y2="770.083" id="el_enGp-Wik2rg"/><path d=" M 1036.728 770.083 C 1039.795 767.889 1041.567 765.315 1041.567 762.563 C 1041.567 754.576 1026.64 748.091 1008.254 748.091 C 989.867 748.091 974.94 754.576 974.94 762.563 C 974.94 765.315 976.713 767.889 979.779 770.083 L 1036.728 770.083" id="el_p3HCpP6imcM"/></g></g><g id="el_evQFnJ6gzpl"><g id="el_UfbbQDdVVxW"><ellipse vector-effect="non-scaling-stroke" cx="367.49999999999994" cy="682.4999999999992" rx="103.50000000000006" ry="126.49999999999989" id="el_neZIHdNhRn0"/><polygon points="376,912.5,352,912.5,364,681" id="el_faaphhaF-6C"/><polygon points="364.889,724,362.229,716.529,442,692.337" id="el_HnDNHXL6bNp"/><polygon points="363.043,737.545,364.889,732.361,285.525,707.025" id="el_JewkAuUR_1M"/></g><g id="el_mbPLLZUKH8T"><ellipse vector-effect="non-scaling-stroke" cx="1295.3204851147523" cy="620.8387096774196" rx="103.5" ry="156.83870967741916" id="el_pVLV-prh36Z"/><polygon points="1303.82,906,1279.82,906,1291.82,618.979" id="el_6Mo0dYN4CKS"/><polygon points="1292.709,672.292,1290.049,663.03,1369.82,633.035" id="el_SG4DcmOH_Sv"/><polygon points="1290.864,689.085,1292.709,682.658,1213.345,651.245" id="el_FPKkkzizCpP"/></g><g id="el_udZz-x0Qs0C"><path d=" M 158.713 906 C 169.616 900.082 176.5 891.368 176.5 881.659 C 176.5 863.82 153.255 849.336 124.624 849.336 C 95.992 849.336 72.747 863.82 72.747 881.659 C 72.747 891.368 79.632 900.082 90.534 906 L 158.713 906 L 158.713 906 Z " id="el_988TmZLGmv_"/><path d=" M 128.962 906 C 131.196 902.898 132.425 899.458 132.425 895.841 C 132.425 881.958 114.336 870.687 92.055 870.687 C 69.774 870.687 51.685 881.958 51.685 895.841 C 51.685 899.458 52.913 902.898 55.147 906 L 128.962 906 L 128.962 906 Z " id="el_J0PcAFKWJKU"/><path d=" M 71.29 906 C 69.208 900.457 61.213 896.335 51.685 896.335 C 42.157 896.335 34.162 900.457 32.08 906 L 71.29 906 L 71.29 906 Z " id="el_SprIYIM6Vuz"/><path d=" M 206.2 906 C 224.72 898.653 237 885.746 237 871.065 C 237 848.197 207.202 829.631 170.5 829.631 C 133.798 829.631 104 848.197 104 871.065 C 104 885.746 116.28 898.653 134.8 906 L 206.2 906 L 206.2 906 Z " id="el_FuDx9IlJxtM"/><path d=" M 238.125 906 C 238.125 897.102 249.719 889.878 264 889.878 C 278.281 889.878 289.875 897.102 289.875 906 L 238.125 906 L 238.125 906 Z " id="el_FuR6hzS9ZfR"/><line x1="256.483" y1="906" x2="256.483" y2="906" id="el_DVXdq0n9Ntz"/><path d=" M 256.483 906 C 261.247 901.111 264 895.376 264 889.244 C 264 871.448 240.812 857 212.25 857 C 183.688 857 160.5 871.448 160.5 889.244 C 160.5 895.376 163.253 901.111 168.017 906 L 256.483 906" id="el_j2T8aLLjku1"/></g><g id="el_8xLTimDv7qi"><path d=" M 1106.399 906 C 1122.103 897.476 1132.018 884.924 1132.018 870.941 C 1132.018 845.245 1098.537 824.384 1057.297 824.384 C 1016.058 824.384 982.576 845.245 982.576 870.941 C 982.576 884.924 992.492 897.476 1008.196 906 L 1106.399 906 L 1106.399 906 Z " id="el_wfDytl5PU_a"/><path d=" M 1063.546 906 C 1066.765 901.532 1068.534 896.577 1068.534 891.367 C 1068.534 871.371 1042.479 855.136 1010.386 855.136 C 978.294 855.136 952.238 871.371 952.238 891.367 C 952.238 896.577 954.008 901.532 957.226 906 L 1063.546 906 L 1063.546 906 Z " id="el_S38aJgGmuP9"/><path d=" M 980.477 906 C 977.478 898.016 965.962 892.079 952.238 892.079 C 938.515 892.079 926.999 898.016 924 906 L 980.477 906 L 980.477 906 Z " id="el_Gu-_QPAtXCF"/><path d=" M 1174.798 906 C 1201.473 895.418 1219.161 876.827 1219.161 855.681 C 1219.161 822.742 1176.241 796 1123.376 796 C 1070.511 796 1027.592 822.742 1027.592 855.681 C 1027.592 876.827 1045.279 895.418 1071.955 906 L 1174.798 906 L 1174.798 906 Z " id="el_ZBHHC8h3o_J"/><path d=" M 1220.781 906 C 1220.781 893.184 1237.481 882.778 1258.051 882.778 C 1278.621 882.778 1295.32 893.184 1295.32 906 L 1220.781 906 L 1220.781 906 Z " id="el_1om8BVvzhT7"/><line x1="1247.224" y1="906" x2="1247.224" y2="906" id="el_XND01W_8Wrk"/><path d=" M 1247.224 906 C 1254.085 898.958 1258.051 890.698 1258.051 881.865 C 1258.051 856.233 1224.651 835.422 1183.512 835.422 C 1142.372 835.422 1108.973 856.233 1108.973 881.865 C 1108.973 890.698 1112.938 898.958 1119.8 906 L 1247.224 906" id="el_dzFI6Vm31-Q"/></g><g id="el_rPTc-A6OaS2"><ellipse vector-effect="non-scaling-stroke" cx="1807.52092760181" cy="576.9677419354838" rx="83.47907239819006" ry="180.96774193548367" id="el_W7__WsXw11N"/><polygon points="1814.377,906,1795.019,906,1804.698,574.822" id="el_4cBTJwrbOZk"/><polygon points="1805.415,636.337,1803.269,625.649,1867.61,591.04" id="el_lVXEU-2TJmL"/><polygon points="1803.926,655.713,1805.415,648.298,1741.403,612.052" id="el_QxvzVNXUgNq"/></g><g id="el_tkfuFlud7dd"><path d=" M 1743.884 906 C 1731.218 899.125 1723.22 889.001 1723.22 877.722 C 1723.22 856.997 1750.225 840.171 1783.488 840.171 C 1816.75 840.171 1843.755 856.997 1843.755 877.722 C 1843.755 889.001 1835.757 899.125 1823.091 906 L 1743.884 906 L 1743.884 906 Z " id="el_Fw0D0YtsWrK"/><path d=" M 1778.447 906 C 1775.852 902.396 1774.425 898.4 1774.425 894.197 C 1774.425 878.069 1795.44 864.975 1821.324 864.975 C 1847.209 864.975 1868.224 878.069 1868.224 894.197 C 1868.224 898.4 1866.797 902.396 1864.201 906 L 1778.447 906 L 1778.447 906 Z " id="el_2_ahlsdEiaR"/><path d=" M 1845.448 906 C 1847.867 899.56 1857.155 894.772 1868.224 894.772 C 1879.293 894.772 1888.581 899.56 1891 906 L 1845.448 906 L 1845.448 906 Z " id="el_bE-1CLsPP-R"/><path d=" M 1688.716 906 C 1667.201 897.465 1652.935 882.47 1652.935 865.415 C 1652.935 838.848 1687.552 817.278 1730.191 817.278 C 1772.83 817.278 1807.447 838.848 1807.447 865.415 C 1807.447 882.47 1793.181 897.465 1771.665 906 L 1688.716 906 L 1688.716 906 Z " id="el_ka72vglIjLn"/><path d=" M 1651.628 906 C 1651.628 895.663 1638.158 887.27 1621.568 887.27 C 1604.977 887.27 1591.507 895.663 1591.507 906 L 1651.628 906 L 1651.628 906 Z " id="el_rJz12SpJ9Jy"/><line x1="1630.3" y1="906" x2="1630.3" y2="906" id="el_qZP-JorXhYq"/><path d=" M 1630.3 906 C 1624.766 900.32 1621.568 893.658 1621.568 886.534 C 1621.568 865.86 1648.507 849.074 1681.688 849.074 C 1714.869 849.074 1741.808 865.86 1741.808 886.534 C 1741.808 893.658 1738.61 900.32 1733.076 906 L 1630.3 906" id="el_s9ZiC8bYYMw"/></g><g id="el_DdrbrTnhuDg"><path d=" M 658.546 939.722 C 683.604 932.847 699.426 922.723 699.426 911.444 C 699.426 890.719 646.001 873.893 580.197 873.893 C 514.393 873.893 460.968 890.719 460.968 911.444 C 460.968 922.723 476.79 932.847 501.848 939.722 L 658.546 939.722 L 658.546 939.722 Z " id="el_lhxEX3bxLqW"/><path d=" M 590.168 939.722 C 595.303 936.118 598.126 932.122 598.126 927.919 C 598.126 911.791 556.551 898.697 505.342 898.697 C 454.134 898.697 412.559 911.791 412.559 927.919 C 412.559 932.122 415.382 936.118 420.517 939.722 L 590.168 939.722 L 590.168 939.722 Z " id="el_OK6s67Uw2NA"/><path d=" M 457.618 939.722 C 452.832 933.282 434.457 928.493 412.559 928.493 C 390.661 928.493 372.286 933.282 367.5 939.722 L 457.618 939.722 L 457.618 939.722 Z " id="el_fmW2mIjHqKh"/><path d=" M 767.687 939.722 C 810.252 931.187 838.475 916.192 838.475 899.137 C 838.475 872.569 769.99 851 685.636 851 C 601.282 851 532.797 872.569 532.797 899.137 C 532.797 916.192 561.02 931.187 603.585 939.722 L 767.687 939.722 L 767.687 939.722 Z " id="el_fTK290bAhzM"/><path d=" M 841.061 939.722 C 841.061 929.384 867.708 920.992 900.531 920.992 C 933.353 920.992 960 929.384 960 939.722 L 841.061 939.722 L 841.061 939.722 Z " id="el_2MyMKboVFy8"/><line x1="883.254" y1="939.722" x2="883.254" y2="939.722" id="el_jApNNGDDxmf"/><path d=" M 883.254 939.722 C 894.202 934.042 900.531 927.38 900.531 920.256 C 900.531 899.581 847.236 882.796 781.592 882.796 C 715.947 882.796 662.653 899.581 662.653 920.256 C 662.653 927.38 668.981 934.042 679.929 939.722 L 883.254 939.722" id="el_I7lArkQX2VH"/></g></g><g id="el_gC4efQ38zcm"><rect x="0" y="929.5" width="1920" height="212" id="el_N_4PUib6q_q"/><rect x="1226" y="995.75" width="311" height="26.5" id="el_TYzQqu25m81"/><rect x="1693" y="995.75" width="311" height="26.5" id="el_y2k1GwKyawB"/><rect x="766" y="995.75" width="311" height="26.5" id="el_0f4N-odZXLP"/><rect x="306" y="995.75" width="311" height="26.5" id="el_fonRdXIPywZ"/><rect x="-155.5" y="995.75" width="311" height="26.5" id="el_RVaCLr21Mw8"/><rect x="0" y="904.5" width="1920" height="38" id="el_vgefh2TnGVw"/></g><g id="el__VBZkm5VxZv_an_EVIEpy6em" data-animator-group="true" data-animator-type="2"><g id="el__VBZkm5VxZv"><path d="M 554.476 132 L 756.476 132 C 772.481 132 785.476 144.994 785.476 161 L 785.476 161 C 785.476 177.006 772.481 190 756.476 190 L 554.476 190 C 538.47 190 525.476 177.006 525.476 161 L 525.476 161 C 525.476 144.994 538.47 132 554.476 132 Z" id="el_cci_ZvJIb81"/><path d="M 536.293 161 L 820.158 161 C 836.339 161 849.476 171.082 849.476 183.5 L 849.476 183.5 C 849.476 195.918 836.339 206 820.158 206 L 536.293 206 C 520.112 206 506.976 195.918 506.976 183.5 L 506.976 183.5 C 506.976 171.082 520.112 161 536.293 161 Z" id="el_Qlj1VgDzoC0"/><path d="M 623.435 169 L 741.516 169 C 756.188 169 768.101 180.912 768.101 195.584 L 768.101 216.416 C 768.101 231.088 756.188 243 741.516 243 L 623.435 243 C 608.763 243 596.851 231.088 596.851 216.416 L 596.851 195.584 C 596.851 180.912 608.763 169 623.435 169 Z" id="el_hyppklkmTYn"/></g></g><g id="el_YQY8rcaqLPv_an_2DfQq7uQx" data-animator-group="true" data-animator-type="2"><g id="el_YQY8rcaqLPv"><path d="M 1516.55 76.5 L 1335.61 76.5 C 1320.354 76.5 1307.968 88.886 1307.968 104.142 L 1307.968 106.858 C 1307.968 122.114 1320.354 134.5 1335.61 134.5 L 1516.55 134.5 C 1531.806 134.5 1544.192 122.114 1544.192 106.858 L 1544.192 104.142 C 1544.192 88.886 1531.806 76.5 1516.55 76.5 Z" id="el_1eb5n2P4CMq"/><path d="M 1533.055 105.5 L 1277.766 105.5 C 1262.342 105.5 1249.82 115.582 1249.82 128 L 1249.82 128 C 1249.82 140.418 1262.342 150.5 1277.766 150.5 L 1533.055 150.5 C 1548.478 150.5 1561 140.418 1561 128 L 1561 128 C 1561 115.582 1548.478 105.5 1533.055 105.5 Z" id="el_XB0UujgZlsC"/><path d="M 1454.004 113.5 L 1349.094 113.5 C 1335.108 113.5 1323.754 124.854 1323.754 138.84 L 1323.754 162.16 C 1323.754 176.146 1335.108 187.5 1349.094 187.5 L 1454.004 187.5 C 1467.989 187.5 1479.344 176.146 1479.344 162.16 L 1479.344 138.84 C 1479.344 124.854 1467.989 113.5 1454.004 113.5 Z" id="el_mepm00CrqAQ"/></g></g><g id="el_KsN4_MBvpFN_an_YhXp4XSsy" data-animator-group="true" data-animator-type="0"><g id="el_KsN4_MBvpFN"><path d="M 1316.462 836.379 L 1751.942 836.379 C 1773.187 836.379 1790.435 853.627 1790.435 874.871 L 1790.435 925.532 C 1790.435 942.414 1776.728 956.121 1759.845 956.121 L 1297.027 956.121 L 1297.027 956.121 L 1297.027 855.814 C 1297.027 845.088 1305.735 836.379 1316.462 836.379 Z" id="el_LKqE9HGSvrw"/><path d=" M 1548.931 663.702 L 1660.034 679.061 C 1662.418 679.39 1664.353 681.612 1664.353 684.018 L 1664.353 684.806 C 1664.353 687.213 1662.399 689.167 1659.993 689.167 L 1536.733 689.167 C 1534.327 689.167 1533.203 687.398 1534.226 685.22 L 1542.758 667.052 C 1543.781 664.874 1546.547 663.373 1548.931 663.702 Z " id="el_1ugA70rgtWY"/><path d=" M 1533.818 686.349 L 1750.723 686.349 Q 1755.294 686.232 1756.547 686.349 C 1757.799 686.467 1762.363 688.74 1762.37 689.892 Q 1762.377 691.045 1762.37 693.436 L 1762.37 869.836 L 1357.602 869.836 L 1357.602 866.743 L 1533.818 686.349 L 1533.818 686.349 Z " id="el_qOHKNlzCzDG"/><path d=" M 1447.113 956.121 C 1449.804 949.243 1451.283 941.76 1451.283 933.934 C 1451.283 900.307 1423.982 873.006 1390.355 873.006 C 1356.728 873.006 1329.428 900.307 1329.428 933.934 C 1329.428 941.76 1330.906 949.243 1333.597 956.121 L 1447.113 956.121 L 1447.113 956.121 Z " id="el_6EcJBP6bwa7"/><circle vector-effect="non-scaling-stroke" cx="1390.355158730158" cy="933.933531746032" r="51.066468253968424" id="el_pR3m5Alvt_e"/><circle vector-effect="non-scaling-stroke" cx="1390.3551587301583" cy="930.2356150793655" r="15.672123015873012" id="el__iMn98Iq1YG"/><path d=" M 1699.276 956.121 C 1701.967 949.243 1703.445 941.76 1703.445 933.934 C 1703.445 900.307 1676.145 873.006 1642.518 873.006 C 1608.891 873.006 1581.59 900.307 1581.59 933.934 C 1581.59 941.76 1583.069 949.243 1585.76 956.121 L 1699.276 956.121 L 1699.276 956.121 Z " id="el_OF_VZ7hQ2UD"/><circle vector-effect="non-scaling-stroke" cx="1642.5178571428569" cy="933.933531746032" r="51.066468253968424" id="el_PnYmHgrBHIO"/><circle vector-effect="non-scaling-stroke" cx="1642.5178571428567" cy="930.2356150793655" r="15.672123015873012" id="el_BHJAucj5XAR"/><path d="M 1288.101 933.934 L 1325.499 933.934 C 1329.708 933.934 1333.125 937.351 1333.125 941.56 L 1333.125 956.594 C 1333.125 960.804 1329.708 964.221 1325.499 964.221 L 1288.101 964.221 C 1283.892 964.221 1280.474 960.804 1280.474 956.594 L 1280.474 941.56 C 1280.474 937.351 1283.892 933.934 1288.101 933.934 Z" id="el_qCwOAeyIUJh"/><path d="M 1458.796 933.934 L 1574.077 933.934 C 1580.945 933.934 1586.521 939.51 1586.521 946.378 L 1586.521 951.777 C 1586.521 958.645 1580.945 964.221 1574.077 964.221 L 1458.796 964.221 C 1451.928 964.221 1446.352 958.645 1446.352 951.777 L 1446.352 946.378 C 1446.352 939.51 1451.928 933.934 1458.796 933.934 Z" id="el_zB0I1pstsUn"/><path d="M 1713.249 940.977 L 1780.631 940.977 C 1786.042 940.977 1790.435 945.37 1790.435 950.781 L 1790.435 961.461 C 1790.435 966.872 1786.042 971.265 1780.631 971.265 L 1713.249 971.265 C 1707.838 971.265 1703.445 966.872 1703.445 961.461 L 1703.445 950.781 C 1703.445 945.37 1707.838 940.977 1713.249 940.977 Z" id="el_GitTozW3ylj"/><rect x="1591.451" y="708.361" width="111.994" height="128.018" id="el_zDMUDDE_WuJ"/><clipPath id="_clipPath_MpRZCT74l9udF6je0tjAumdc66B20NQm"><rect x="1591.451" y="708.361" width="111.994" height="128.018" transform="matrix(1,0,0,1,0,0)" fill="rgb(44,207,253)"/></clipPath><g clip-path="url(#_clipPath_MpRZCT74l9udF6je0tjAumdc66B20NQm)" id="el_Nfvj1p4nO7i"><rect x="1569.563" y="710.198" width="155.771" height="15.024" id="el_pljK1RA0EYt"/><rect x="1573.839" y="763.344" width="155.771" height="15.024" id="el_tgKBDX484lr"/><rect x="1569.563" y="810.008" width="155.771" height="15.024" id="el_YBtNtr11S3P"/><rect x="1587.212" y="834.878" width="155.771" height="15.024" id="el_iwkEgk-Koqx"/></g><path d=" M 1580.199 708.361 L 1580.199 836.379 L 1406.027 836.379 L 1406.027 834.221 L 1527.1 708.361 L 1580.199 708.361 Z " id="el__LZ0ksk4b5D"/><clipPath id="_clipPath_I8bYQbSC8z040K8qAmxFJ6DA3qsdAbWA"><path d=" M 1580.199 708.361 L 1580.199 836.379 L 1406.027 836.379 L 1406.027 834.221 L 1527.1 708.361 L 1580.199 708.361 Z " fill="rgb(44,207,253)"/></clipPath><g clip-path="url(#_clipPath_I8bYQbSC8z040K8qAmxFJ6DA3qsdAbWA)" id="el_q-atHPa6vCa"><rect x="1428.272" y="740.04" width="187.6" height="15.496" id="el_l3Wv0cxN2eU"/><rect x="1388.691" y="792.35" width="220.372" height="26.5" id="el_3cip_7wAnfj"/><rect x="1435.468" y="823.964" width="187.6" height="26.5" id="el_B8JXRnuXvpH"/></g><path d="M 1294.219 849.762 L 1308.375 849.762 C 1314.163 849.762 1318.862 854.461 1318.862 860.249 L 1318.862 862.518 C 1318.862 868.307 1314.163 873.006 1308.375 873.006 L 1294.219 873.006 C 1288.431 873.006 1283.732 868.307 1283.732 862.518 L 1283.732 860.249 C 1283.732 854.461 1288.431 849.762 1294.219 849.762 Z" id="el_zeWHThW6V8D"/><path d="M 1549.455 853.988 L 1567.853 853.988 C 1572.471 853.988 1576.219 857.302 1576.219 861.384 L 1576.219 861.384 C 1576.219 865.466 1572.471 868.78 1567.853 868.78 L 1549.455 868.78 C 1544.838 868.78 1541.089 865.466 1541.089 861.384 L 1541.089 861.384 C 1541.089 857.302 1544.838 853.988 1549.455 853.988 Z" id="el_diqEEThP5U5"/><path d="M 1739.293 849.762 L 1785.447 849.762 C 1794.031 849.762 1801 854.97 1801 861.384 L 1801 861.384 C 1801 867.798 1794.031 873.006 1785.447 873.006 L 1739.293 873.006 C 1730.709 873.006 1723.74 867.798 1723.74 861.384 L 1723.74 861.384 C 1723.74 854.97 1730.709 849.762 1739.293 849.762 Z" id="el_b9qsrORRLZz"/><path d="M 1763.708 699.732 L 1789.866 699.732 C 1794.651 699.732 1798.535 703.616 1798.535 708.4 L 1798.535 813.976 C 1798.535 818.76 1794.651 822.644 1789.866 822.644 L 1763.708 822.644 C 1758.924 822.644 1755.04 818.76 1755.04 813.976 L 1755.04 708.4 C 1755.04 703.616 1758.924 699.732 1763.708 699.732 Z" id="el_VGVVbR_OiVa"/><path d="M 1759.348 699.732 L 1761.474 699.732 C 1763.852 699.732 1765.782 701.662 1765.782 704.04 L 1765.782 818.336 C 1765.782 820.714 1763.852 822.644 1761.474 822.644 L 1759.348 822.644 C 1756.97 822.644 1755.04 820.714 1755.04 818.336 L 1755.04 704.04 C 1755.04 701.662 1756.97 699.732 1759.348 699.732 Z" id="el_wzhPSwE_9Ry"/><path d=" M 1359.715 793.061 L 1362.181 793.061 L 1372.944 848.588 L 1364.877 849.626 L 1359.715 793.061 Z " id="el_NyKWu2lVOQi"/><path d=" M 1360.416 795.442 L 1359.553 793.15 L 1380.541 779.95 L 1383.828 787.39 L 1360.416 795.442 Z " id="el_JUC1GR6p0S8"/><circle vector-effect="non-scaling-stroke" cx="1370.104662698412" cy="849.7619047619049" r="9.332837301587233" id="el_vztkMuRyWaq"/><path d="M 1387.414 747.629 L 1398.05 747.629 C 1402.453 747.629 1406.027 751.203 1406.027 755.606 L 1406.027 787.465 C 1406.027 791.867 1402.453 795.442 1398.05 795.442 L 1387.414 795.442 C 1383.012 795.442 1379.437 791.867 1379.437 787.465 L 1379.437 755.606 C 1379.437 751.203 1383.012 747.629 1387.414 747.629 Z" id="el_T_xMbpTrsBm"/></g></g></g></svg>